<svg xmlns="http://www.w3.org/2000/svg" viewBox="0 0 85 48"><defs><style>.cls-1{fill:#393249;}.cls-2{fill:#e4e9f8;}.cls-3{fill:none;}</style></defs><g id="Camada_2" data-name="Camada 2"><g id="Camada_1-2" data-name="Camada 1"><path class="cls-1" d="M61.46,37A13.55,13.55,0,0,1,56,11.09a1.13,1.13,0,0,1,1.49,1.49,11.56,11.56,0,0,0-.82,4.57,11.21,11.21,0,0,0,11.2,11.2,11.56,11.56,0,0,0,4.57-.82A1.13,1.13,0,0,1,73.91,29,13.5,13.5,0,0,1,61.46,37ZM54.59,14.53a11.37,11.37,0,0,0-4.33,9,11.21,11.21,0,0,0,11.2,11.2,11.37,11.37,0,0,0,9-4.33,16.79,16.79,0,0,1-2.62.2A13.48,13.48,0,0,1,54.39,17.15,16.69,16.69,0,0,1,54.59,14.53Z"/><path class="cls-2" d="M13,37a1.14,1.14,0,0,1-1.13-1.13V33.13a1.13,1.13,0,1,1,2.26,0v2.74A1.14,1.14,0,0,1,13,37Zm8.39-3.48a1.12,1.12,0,0,1-.79-.33l-1.94-1.93a1.13,1.13,0,0,1,1.6-1.6l1.93,1.94a1.13,1.13,0,0,1-.8,1.92Zm-16.78,0a1.13,1.13,0,0,1-.8-1.92l1.93-1.94a1.13,1.13,0,0,1,1.6,1.6L5.4,33.19A1.12,1.12,0,0,1,4.61,33.52Zm20.26-8.39H22.13a1.13,1.13,0,1,1,0-2.26h2.74a1.13,1.13,0,1,1,0,2.26Zm-21,0H1.13a1.13,1.13,0,1,1,0-2.26H3.87a1.13,1.13,0,1,1,0,2.26Zm15.59-6.46a1.13,1.13,0,0,1-.8-1.93l1.94-1.93a1.12,1.12,0,1,1,1.59,1.59l-1.93,1.94A1.15,1.15,0,0,1,19.46,18.67Zm-12.92,0a1.15,1.15,0,0,1-.8-.33L3.81,16.4A1.12,1.12,0,0,1,5.4,14.81l1.94,1.93a1.13,1.13,0,0,1-.8,1.93ZM13,16a1.14,1.14,0,0,1-1.13-1.13V12.13a1.13,1.13,0,0,1,2.26,0v2.74A1.14,1.14,0,0,1,13,16Z"/><path class="cls-2" d="M13,29.69A5.69,5.69,0,1,1,18.69,24,5.69,5.69,0,0,1,13,29.69Zm0-9.13A3.44,3.44,0,1,0,16.44,24,3.45,3.45,0,0,0,13,20.56Z"/><rect class="cls-3" x="37" width="48" height="48"/></g></g></svg>